<svg width="179" height="56" viewBox="0 0 179 56" fill="none" xmlns="http://www.w3.org/2000/svg">
<path d="M10.325 42.0578C14.1917 42.0578 17.2083 40.9745 19.375 38.8078C21.5583 36.6245 22.65 33.5745 22.65 29.6578V0.00781012H17.575V28.2328C17.575 31.0661 16.8833 33.2745 15.5 34.8578C14.1167 36.4245 12.1833 37.2078 9.7 37.2078C7.11667 37.2078 4.75 36.1328 2.6 33.9828L0.725 38.2078C3.40833 40.7745 6.60833 42.0578 10.325 42.0578ZM44.7402 42.0578C48.8736 42.0578 51.8319 41.1745 53.6152 39.4078C55.3986 37.6245 56.2902 34.6661 56.2902 30.5328V15.6578H51.4402V29.5328C51.4402 32.5995 50.9319 34.7828 49.9152 36.0828C48.8986 37.3828 47.1736 38.0328 44.7402 38.0328C42.3236 38.0328 40.6069 37.3828 39.5902 36.0828C38.5736 34.7828 38.0652 32.5995 38.0652 29.5328V15.6578H33.2152V30.5328C33.2152 34.6661 34.1069 37.6245 35.8902 39.4078C37.6736 41.1745 40.6236 42.0578 44.7402 42.0578ZM66.0156 41.2578H70.8656V24.4328C70.8656 23.4828 71.1656 22.5745 71.7656 21.7078C72.3823 20.8411 73.2073 20.1411 74.2406 19.6078C75.2906 19.0578 76.4573 18.7828 77.7406 18.7828C79.574 18.7828 81.0406 19.3828 82.1406 20.5828C83.2406 21.7828 83.7906 23.3911 83.7906 25.4078V41.2578H88.6406V24.6078C88.6406 23.6245 88.9323 22.6911 89.5156 21.8078C90.1156 20.9078 90.924 20.1828 91.9406 19.6328C92.974 19.0661 94.1323 18.7828 95.4156 18.7828C97.2656 18.7828 98.749 19.4078 99.8656 20.6578C100.982 21.9078 101.541 23.5995 101.541 25.7328V41.2578H106.391V24.3828C106.391 21.3661 105.499 19.0245 103.716 17.3578C101.932 15.6911 99.674 14.8578 96.9406 14.8578C94.924 14.8578 93.1656 15.3245 91.6656 16.2578C90.1656 17.1911 88.8823 18.4745 87.8156 20.1078C87.199 18.4911 86.1073 17.2161 84.5406 16.2828C82.974 15.3328 81.1573 14.8578 79.0906 14.8578C75.7906 14.8578 73.049 16.2245 70.8656 18.9578V15.6578H66.0156V41.2578ZM127.811 55.0078C132.344 55.0078 135.844 53.8578 138.311 51.5578C140.778 49.2578 142.011 46.0578 142.011 41.9578V15.6578H137.161V20.3328C136.144 18.6161 134.753 17.2745 132.986 16.3078C131.219 15.3411 129.269 14.8578 127.136 14.8578C124.686 14.8578 122.494 15.4495 120.561 16.6328C118.644 17.8161 117.128 19.4328 116.011 21.4828C114.894 23.5161 114.336 25.8411 114.336 28.4578C114.336 31.0911 114.903 33.4328 116.036 35.4828C117.169 37.5328 118.694 39.1411 120.611 40.3078C122.528 41.4745 124.669 42.0578 127.036 42.0578C129.169 42.0578 131.119 41.5661 132.886 40.5828C134.653 39.5828 136.078 38.2078 137.161 36.4578V41.9328C137.161 43.7828 136.753 45.3745 135.936 46.7078C135.136 48.0411 134.028 49.0661 132.611 49.7828C131.211 50.4995 129.611 50.8578 127.811 50.8578C125.711 50.8578 123.819 50.3828 122.136 49.4328C120.453 48.4995 119.228 47.2411 118.461 45.6578L114.436 47.5578C116.653 52.5245 121.111 55.0078 127.811 55.0078ZM128.336 37.8828C126.603 37.8828 125.061 37.4828 123.711 36.6828C122.361 35.8661 121.303 34.7495 120.536 33.3328C119.769 31.9161 119.386 30.2995 119.386 28.4828C119.386 26.6495 119.769 25.0245 120.536 23.6078C121.319 22.1745 122.386 21.0578 123.736 20.2578C125.086 19.4411 126.628 19.0328 128.361 19.0328C130.094 19.0328 131.636 19.4411 132.986 20.2578C134.336 21.0578 135.394 22.1745 136.161 23.6078C136.944 25.0245 137.336 26.6495 137.336 28.4828C137.336 30.2995 136.953 31.9161 136.186 33.3328C135.419 34.7495 134.353 35.8661 132.986 36.6828C131.636 37.4828 130.086 37.8828 128.336 37.8828ZM163.096 42.0578C165.213 42.0578 167.146 41.5661 168.896 40.5828C170.646 39.5995 172.079 38.2245 173.196 36.4578V41.2578H178.046V15.6578H173.196V20.3328C172.213 18.6161 170.821 17.2745 169.021 16.3078C167.238 15.3411 165.263 14.8578 163.096 14.8578C160.646 14.8578 158.463 15.4495 156.546 16.6328C154.629 17.8161 153.121 19.4328 152.021 21.4828C150.921 23.5161 150.371 25.8328 150.371 28.4328C150.371 31.0661 150.929 33.4078 152.046 35.4578C153.179 37.5078 154.704 39.1245 156.621 40.3078C158.554 41.4745 160.713 42.0578 163.096 42.0578ZM164.396 37.8828C162.663 37.8828 161.121 37.4828 159.771 36.6828C158.421 35.8661 157.354 34.7495 156.571 33.3328C155.804 31.8995 155.421 30.2745 155.421 28.4578C155.421 26.6245 155.804 24.9995 156.571 23.5828C157.354 22.1661 158.421 21.0578 159.771 20.2578C161.121 19.4411 162.663 19.0328 164.396 19.0328C166.146 19.0328 167.688 19.4411 169.021 20.2578C170.371 21.0578 171.429 22.1661 172.196 23.5828C172.963 24.9995 173.346 26.6245 173.346 28.4578C173.346 30.2911 172.963 31.9161 172.196 33.3328C171.429 34.7495 170.371 35.8661 169.021 36.6828C167.688 37.4828 166.146 37.8828 164.396 37.8828Z" fill="white"/>
</svg>
