<svg width="284" height="62" viewBox="0 0 284 62" fill="none" xmlns="http://www.w3.org/2000/svg">
<path fill-rule="evenodd" clip-rule="evenodd" d="M0 33.8203C0.91054 38.3511 2.81041 42.1948 5.69961 45.3516C9.91836 49.9609 15.6215 52.2656 22.809 52.2656C27.0277 52.2656 30.7973 51.1719 34.1176 48.9844C37.4379 46.7969 40.0355 43.8086 41.9105 40.0195C43.8246 44.4727 46.6371 47.9687 50.348 50.5078C54.059 53.0078 58.2191 54.2578 62.8285 54.2578C70.1723 54.2578 76.0512 51.7969 80.4652 46.875C83.5788 43.3445 85.5844 38.9929 86.4821 33.8203H77.191C76.498 35.886 75.441 37.6595 74.0199 39.1406C71.2465 41.9922 67.4379 43.418 62.5941 43.418C57.7504 43.418 53.8441 41.9531 50.8754 39.0234C49.3829 37.5309 48.2656 35.7966 47.5234 33.8203L36.1691 33.8203C35.5227 35.217 34.6435 36.4631 33.5316 37.5586C30.8363 40.1367 27.3207 41.4258 22.9848 41.4258C18.4535 41.4258 14.8793 40.1172 12.2621 37.5C11.1707 36.4086 10.3036 35.1821 9.6606 33.8203H0ZM35.8501 19.8203C35.2431 18.6897 34.4703 17.6689 33.5316 16.7578C30.8363 14.1406 27.3207 12.832 22.9848 12.832C18.6488 12.832 15.1137 14.1797 12.3793 16.875C11.4652 17.776 10.7039 18.7578 10.0954 19.8203H0.138678C1.09614 15.5878 2.94978 11.9693 5.69961 8.96484C9.91836 4.31641 15.6215 1.99219 22.809 1.99219C27.0668 1.99219 30.8559 3.125 34.1762 5.39062C37.4965 7.61719 40.0941 10.6445 41.9691 14.4727C43.8832 10.0195 46.6762 6.50391 50.348 3.92578C54.0199 1.30859 58.1801 0 62.8285 0C70.2113 0 76.0902 2.5 80.4652 7.5C83.4413 10.8747 85.4052 14.9815 86.3568 19.8203H76.952C76.2638 18.044 75.2865 16.4959 74.0199 15.1758C71.2074 12.2852 67.3988 10.8398 62.5941 10.8398C57.8285 10.8398 53.9418 12.3633 50.934 15.4102C49.638 16.7062 48.6212 18.1762 47.8836 19.8203H35.8501Z" fill="url(#paint0_linear_6_134)"/>
<path d="M110.325 48.0578C114.192 48.0578 117.208 46.9745 119.375 44.8078C121.558 42.6245 122.65 39.5745 122.65 35.6578V6.00781H117.575V34.2328C117.575 37.0661 116.883 39.2745 115.5 40.8578C114.117 42.4245 112.183 43.2078 109.7 43.2078C107.117 43.2078 104.75 42.1328 102.6 39.9828L100.725 44.2078C103.408 46.7745 106.608 48.0578 110.325 48.0578ZM144.74 48.0578C148.874 48.0578 151.832 47.1745 153.615 45.4078C155.399 43.6245 156.29 40.6661 156.29 36.5328V21.6578H151.44V35.5328C151.44 38.5995 150.932 40.7828 149.915 42.0828C148.899 43.3828 147.174 44.0328 144.74 44.0328C142.324 44.0328 140.607 43.3828 139.59 42.0828C138.574 40.7828 138.065 38.5995 138.065 35.5328V21.6578H133.215V36.5328C133.215 40.6661 134.107 43.6245 135.89 45.4078C137.674 47.1745 140.624 48.0578 144.74 48.0578ZM166.016 47.2578H170.866V30.4328C170.866 29.4828 171.166 28.5745 171.766 27.7078C172.382 26.8411 173.207 26.1411 174.241 25.6078C175.291 25.0578 176.457 24.7828 177.741 24.7828C179.574 24.7828 181.041 25.3828 182.141 26.5828C183.241 27.7828 183.791 29.3911 183.791 31.4078V47.2578H188.641V30.6078C188.641 29.6245 188.932 28.6911 189.516 27.8078C190.116 26.9078 190.924 26.1828 191.941 25.6328C192.974 25.0661 194.132 24.7828 195.416 24.7828C197.266 24.7828 198.749 25.4078 199.866 26.6578C200.982 27.9078 201.541 29.5995 201.541 31.7328V47.2578H206.391V30.3828C206.391 27.3661 205.499 25.0245 203.716 23.3578C201.932 21.6911 199.674 20.8578 196.941 20.8578C194.924 20.8578 193.166 21.3245 191.666 22.2578C190.166 23.1911 188.882 24.4745 187.816 26.1078C187.199 24.4911 186.107 23.2161 184.541 22.2828C182.974 21.3328 181.157 20.8578 179.091 20.8578C175.791 20.8578 173.049 22.2245 170.866 24.9578V21.6578H166.016V47.2578ZM227.811 61.0078C232.344 61.0078 235.844 59.8578 238.311 57.5578C240.778 55.2578 242.011 52.0578 242.011 47.9578V21.6578H237.161V26.3328C236.144 24.6161 234.753 23.2745 232.986 22.3078C231.219 21.3411 229.269 20.8578 227.136 20.8578C224.686 20.8578 222.494 21.4495 220.561 22.6328C218.644 23.8161 217.128 25.4328 216.011 27.4828C214.894 29.5161 214.336 31.8411 214.336 34.4578C214.336 37.0911 214.903 39.4328 216.036 41.4828C217.169 43.5328 218.694 45.1411 220.611 46.3078C222.528 47.4745 224.669 48.0578 227.036 48.0578C229.169 48.0578 231.119 47.5661 232.886 46.5828C234.653 45.5828 236.078 44.2078 237.161 42.4578V47.9328C237.161 49.7828 236.753 51.3745 235.936 52.7078C235.136 54.0411 234.028 55.0661 232.611 55.7828C231.211 56.4995 229.611 56.8578 227.811 56.8578C225.711 56.8578 223.819 56.3828 222.136 55.4328C220.453 54.4995 219.228 53.2411 218.461 51.6578L214.436 53.5578C216.653 58.5245 221.111 61.0078 227.811 61.0078ZM228.336 43.8828C226.603 43.8828 225.061 43.4828 223.711 42.6828C222.361 41.8661 221.303 40.7495 220.536 39.3328C219.769 37.9161 219.386 36.2995 219.386 34.4828C219.386 32.6495 219.769 31.0245 220.536 29.6078C221.319 28.1745 222.386 27.0578 223.736 26.2578C225.086 25.4411 226.628 25.0328 228.361 25.0328C230.094 25.0328 231.636 25.4411 232.986 26.2578C234.336 27.0578 235.394 28.1745 236.161 29.6078C236.944 31.0245 237.336 32.6495 237.336 34.4828C237.336 36.2995 236.953 37.9161 236.186 39.3328C235.419 40.7495 234.353 41.8661 232.986 42.6828C231.636 43.4828 230.086 43.8828 228.336 43.8828ZM263.096 48.0578C265.213 48.0578 267.146 47.5661 268.896 46.5828C270.646 45.5995 272.079 44.2245 273.196 42.4578V47.2578H278.046V21.6578H273.196V26.3328C272.213 24.6161 270.821 23.2745 269.021 22.3078C267.238 21.3411 265.263 20.8578 263.096 20.8578C260.646 20.8578 258.463 21.4495 256.546 22.6328C254.629 23.8161 253.121 25.4328 252.021 27.4828C250.921 29.5161 250.371 31.8328 250.371 34.4328C250.371 37.0661 250.929 39.4078 252.046 41.4578C253.179 43.5078 254.704 45.1245 256.621 46.3078C258.554 47.4745 260.713 48.0578 263.096 48.0578ZM264.396 43.8828C262.663 43.8828 261.121 43.4828 259.771 42.6828C258.421 41.8661 257.354 40.7495 256.571 39.3328C255.804 37.8995 255.421 36.2745 255.421 34.4578C255.421 32.6245 255.804 30.9995 256.571 29.5828C257.354 28.1661 258.421 27.0578 259.771 26.2578C261.121 25.4411 262.663 25.0328 264.396 25.0328C266.146 25.0328 267.688 25.4411 269.021 26.2578C270.371 27.0578 271.429 28.1661 272.196 29.5828C272.963 30.9995 273.346 32.6245 273.346 34.4578C273.346 36.2911 272.963 37.9161 272.196 39.3328C271.429 40.7495 270.371 41.8661 269.021 42.6828C267.688 43.4828 266.146 43.8828 264.396 43.8828Z" fill="#3D348B"/>
<defs>
<linearGradient id="paint0_linear_6_134" x1="0" y1="27.1289" x2="103" y2="27" gradientUnits="userSpaceOnUse">
<stop offset="0.282575" stop-color="#100A4A"/>
<stop offset="0.837484" stop-color="#3D348B"/>
</linearGradient>
</defs>
</svg>
